<?xml version="1.0" encoding="UTF-8" standalone="no"?>
<!DOCTYPE svg PUBLIC "-//W3C//DTD SVG 1.1//EN"
 "http://www.w3.org/Graphics/SVG/1.1/DTD/svg11.dtd">
<!-- Generated by graphviz version 2.47.0 (20210316.0004)
 -->
<!-- Title: dependencies Pages: 1 -->
<svg width="504pt" height="284pt"
 viewBox="0.00 0.00 504.00 284.00" xmlns="http://www.w3.org/2000/svg" xmlns:xlink="http://www.w3.org/1999/xlink">
<g id="graph0" class="graph" transform="scale(1 1) rotate(0) translate(4 280)">
<title>dependencies</title>
<polygon fill="white" stroke="transparent" points="-4,4 -4,-280 500,-280 500,4 -4,4"/>
<text text-anchor="start" x="227.01" y="-42.4" font-family="sans-serif" font-weight="bold" font-size="14.00">Legend</text>
<polygon fill="#ffffb3" stroke="transparent" points="14,-10 14,-30 34,-30 34,-10 14,-10"/>
<text text-anchor="start" x="37.63" y="-15.4" font-family="sans-serif" font-size="14.00"> &#160;Declarations</text>
<polygon fill="#8dd3c7" stroke="transparent" points="127,-10 127,-30 147,-30 147,-10 127,-10"/>
<text text-anchor="start" x="150.73" y="-15.4" font-family="sans-serif" font-size="14.00"> &#160;Module</text>
<polygon fill="#80b1d3" stroke="transparent" points="213,-10 213,-30 233,-30 233,-10 213,-10"/>
<text text-anchor="start" x="236.78" y="-15.4" font-family="sans-serif" font-size="14.00"> &#160;Bootstrap</text>
<polygon fill="#fdb462" stroke="transparent" points="310,-10 310,-30 330,-30 330,-10 310,-10"/>
<text text-anchor="start" x="333.67" y="-15.4" font-family="sans-serif" font-size="14.00"> &#160;Providers</text>
<polygon fill="#fb8072" stroke="transparent" points="406,-10 406,-30 426,-30 426,-10 406,-10"/>
<text text-anchor="start" x="429.73" y="-15.4" font-family="sans-serif" font-size="14.00"> &#160;Exports</text>
<g id="clust1" class="cluster">
<title>cluster_SharedModule</title>
<polygon fill="none" stroke="black" stroke-dasharray="1,5" points="104,-70 104,-268 392,-268 392,-70 104,-70"/>
</g>
<g id="clust6" class="cluster">
<title>cluster_SharedModule_exports</title>
<polygon fill="none" stroke="black" points="112,-208 112,-260 384,-260 384,-208 112,-208"/>
</g>
<g id="clust2" class="cluster">
<title>cluster_SharedModule_declarations</title>
<polygon fill="none" stroke="black" points="115,-78 115,-130 381,-130 381,-78 115,-78"/>
</g>
<!-- ApiPathPipe -->
<g id="node1" class="node">
<title>ApiPathPipe</title>
<polygon fill="#ffffb3" stroke="black" points="373.27,-122 286.73,-122 286.73,-86 373.27,-86 373.27,-122"/>
<text text-anchor="middle" x="330" y="-99.8" font-family="Times,serif" font-size="14.00">ApiPathPipe</text>
</g>
<!-- SharedModule -->
<g id="node3" class="node">
<title>SharedModule</title>
<polygon fill="#8dd3c7" stroke="black" points="245.42,-187 242.42,-191 221.42,-191 218.42,-187 146.58,-187 146.58,-151 245.42,-151 245.42,-187"/>
<text text-anchor="middle" x="196" y="-164.8" font-family="Times,serif" font-size="14.00">SharedModule</text>
</g>
<!-- ApiPathPipe&#45;&gt;SharedModule -->
<g id="edge1" class="edge">
<title>ApiPathPipe&#45;&gt;SharedModule</title>
<path fill="none" stroke="black" d="M344.46,-122.02C344.46,-139.37 344.46,-163 344.46,-163 344.46,-163 255.44,-163 255.44,-163"/>
<polygon fill="black" stroke="black" points="255.44,-159.5 245.44,-163 255.44,-166.5 255.44,-159.5"/>
</g>
<!-- ImageDefaultDirective -->
<g id="node2" class="node">
<title>ImageDefaultDirective</title>
<polygon fill="#ffffb3" stroke="black" points="268.54,-122 123.46,-122 123.46,-86 268.54,-86 268.54,-122"/>
<text text-anchor="middle" x="196" y="-99.8" font-family="Times,serif" font-size="14.00">ImageDefaultDirective</text>
</g>
<!-- ImageDefaultDirective&#45;&gt;SharedModule -->
<g id="edge2" class="edge">
<title>ImageDefaultDirective&#45;&gt;SharedModule</title>
<path fill="none" stroke="black" d="M196,-122.11C196,-122.11 196,-140.99 196,-140.99"/>
<polygon fill="black" stroke="black" points="192.5,-140.99 196,-150.99 199.5,-140.99 192.5,-140.99"/>
</g>
<!-- ApiPathPipe  -->
<g id="node4" class="node">
<title>ApiPathPipe </title>
<polygon fill="#fb8072" stroke="black" points="376.27,-252 285.73,-252 285.73,-216 376.27,-216 376.27,-252"/>
<text text-anchor="middle" x="331" y="-229.8" font-family="Times,serif" font-size="14.00">ApiPathPipe </text>
</g>
<!-- SharedModule&#45;&gt;ApiPathPipe  -->
<g id="edge3" class="edge">
<title>SharedModule&#45;&gt;ApiPathPipe </title>
<path fill="none" stroke="black" stroke-dasharray="5,2" d="M245.31,-175C278.24,-175 315.54,-175 315.54,-175 315.54,-175 315.54,-205.98 315.54,-205.98"/>
<polygon fill="black" stroke="black" points="312.04,-205.98 315.54,-215.98 319.04,-205.98 312.04,-205.98"/>
</g>
<!-- ImageDefaultDirective  -->
<g id="node5" class="node">
<title>ImageDefaultDirective </title>
<polygon fill="#fb8072" stroke="black" points="268.04,-252 119.96,-252 119.96,-216 268.04,-216 268.04,-252"/>
<text text-anchor="middle" x="194" y="-229.8" font-family="Times,serif" font-size="14.00">ImageDefaultDirective </text>
</g>
<!-- SharedModule&#45;&gt;ImageDefaultDirective  -->
<g id="edge4" class="edge">
<title>SharedModule&#45;&gt;ImageDefaultDirective </title>
<path fill="none" stroke="black" stroke-dasharray="5,2" d="M196,-187.11C196,-187.11 196,-205.99 196,-205.99"/>
<polygon fill="black" stroke="black" points="192.5,-205.99 196,-215.99 199.5,-205.99 192.5,-205.99"/>
</g>
</g>
</svg>
