<?xml version="1.0" encoding="UTF-8" standalone="no"?>
<!DOCTYPE svg PUBLIC "-//W3C//DTD SVG 1.1//EN"
 "http://www.w3.org/Graphics/SVG/1.1/DTD/svg11.dtd">
<!-- Generated by graphviz version 2.47.0 (20210316.0004)
 -->
<!-- Title: dependencies Pages: 1 -->
<svg width="1628pt" height="211pt"
 viewBox="0.00 0.00 1628.00 211.00" xmlns="http://www.w3.org/2000/svg" xmlns:xlink="http://www.w3.org/1999/xlink">
<g id="graph0" class="graph" transform="scale(1 1) rotate(0) translate(4 207)">
<title>dependencies</title>
<polygon fill="white" stroke="transparent" points="-4,4 -4,-207 1624,-207 1624,4 -4,4"/>
<text text-anchor="start" x="789.01" y="-42.4" font-family="sans-serif" font-weight="bold" font-size="14.00">Legend</text>
<polygon fill="#ffffb3" stroke="transparent" points="576,-10 576,-30 596,-30 596,-10 576,-10"/>
<text text-anchor="start" x="599.63" y="-15.4" font-family="sans-serif" font-size="14.00"> &#160;Declarations</text>
<polygon fill="#8dd3c7" stroke="transparent" points="689,-10 689,-30 709,-30 709,-10 689,-10"/>
<text text-anchor="start" x="712.73" y="-15.4" font-family="sans-serif" font-size="14.00"> &#160;Module</text>
<polygon fill="#80b1d3" stroke="transparent" points="775,-10 775,-30 795,-30 795,-10 775,-10"/>
<text text-anchor="start" x="798.78" y="-15.4" font-family="sans-serif" font-size="14.00"> &#160;Bootstrap</text>
<polygon fill="#fdb462" stroke="transparent" points="872,-10 872,-30 892,-30 892,-10 872,-10"/>
<text text-anchor="start" x="895.67" y="-15.4" font-family="sans-serif" font-size="14.00"> &#160;Providers</text>
<polygon fill="#fb8072" stroke="transparent" points="968,-10 968,-30 988,-30 988,-10 968,-10"/>
<text text-anchor="start" x="991.73" y="-15.4" font-family="sans-serif" font-size="14.00"> &#160;Exports</text>
<g id="clust1" class="cluster">
<title>cluster_AuthModule</title>
<polygon fill="none" stroke="black" stroke-dasharray="1,5" points="8,-70 8,-195 1612,-195 1612,-70 8,-70"/>
</g>
<g id="clust2" class="cluster">
<title>cluster_AuthModule_declarations</title>
<polygon fill="none" stroke="black" points="138,-78 138,-130 1604,-130 1604,-78 138,-78"/>
</g>
<g id="clust11" class="cluster">
<title>cluster_AuthModule_imports</title>
<polygon fill="none" stroke="black" points="16,-78 16,-130 130,-130 130,-78 16,-78"/>
</g>
<!-- AuthComponent -->
<g id="node1" class="node">
<title>AuthComponent</title>
<polygon fill="#ffffb3" stroke="black" points="1595.83,-122 1486.17,-122 1486.17,-86 1595.83,-86 1595.83,-122"/>
<text text-anchor="middle" x="1541" y="-99.8" font-family="Times,serif" font-size="14.00">AuthComponent</text>
</g>
<!-- AuthModule -->
<g id="node9" class="node">
<title>AuthModule</title>
<polygon fill="#8dd3c7" stroke="black" points="818.55,-187 815.55,-191 794.55,-191 791.55,-187 731.45,-187 731.45,-151 818.55,-151 818.55,-187"/>
<text text-anchor="middle" x="775" y="-164.8" font-family="Times,serif" font-size="14.00">AuthModule</text>
</g>
<!-- AuthComponent&#45;&gt;AuthModule -->
<g id="edge1" class="edge">
<title>AuthComponent&#45;&gt;AuthModule</title>
<path fill="none" stroke="black" d="M1541,-122.01C1541,-144.49 1541,-180 1541,-180 1541,-180 828.66,-180 828.66,-180"/>
<polygon fill="black" stroke="black" points="828.66,-176.5 818.66,-180 828.66,-183.5 828.66,-176.5"/>
</g>
<!-- ConfirmEmailComponent -->
<g id="node2" class="node">
<title>ConfirmEmailComponent</title>
<polygon fill="#ffffb3" stroke="black" points="1468.21,-122 1305.79,-122 1305.79,-86 1468.21,-86 1468.21,-122"/>
<text text-anchor="middle" x="1387" y="-99.8" font-family="Times,serif" font-size="14.00">ConfirmEmailComponent</text>
</g>
<!-- ConfirmEmailComponent&#45;&gt;AuthModule -->
<g id="edge2" class="edge">
<title>ConfirmEmailComponent&#45;&gt;AuthModule</title>
<path fill="none" stroke="black" d="M1387,-122.13C1387,-142.57 1387,-173 1387,-173 1387,-173 829.01,-173 829.01,-173"/>
<polygon fill="black" stroke="black" points="829.01,-169.5 819.01,-173 829.01,-176.5 829.01,-169.5"/>
</g>
<!-- ConfirmEmailDialogComponent -->
<g id="node3" class="node">
<title>ConfirmEmailDialogComponent</title>
<polygon fill="#ffffb3" stroke="black" points="1288.31,-122 1087.69,-122 1087.69,-86 1288.31,-86 1288.31,-122"/>
<text text-anchor="middle" x="1188" y="-99.8" font-family="Times,serif" font-size="14.00">ConfirmEmailDialogComponent</text>
</g>
<!-- ConfirmEmailDialogComponent&#45;&gt;AuthModule -->
<g id="edge3" class="edge">
<title>ConfirmEmailDialogComponent&#45;&gt;AuthModule</title>
<path fill="none" stroke="black" d="M1188,-122.27C1188,-140.56 1188,-166 1188,-166 1188,-166 828.81,-166 828.81,-166"/>
<polygon fill="black" stroke="black" points="828.81,-162.5 818.81,-166 828.81,-169.5 828.81,-162.5"/>
</g>
<!-- ForgotPasswordComponent -->
<g id="node4" class="node">
<title>ForgotPasswordComponent</title>
<polygon fill="#ffffb3" stroke="black" points="1070.32,-122 897.68,-122 897.68,-86 1070.32,-86 1070.32,-122"/>
<text text-anchor="middle" x="984" y="-99.8" font-family="Times,serif" font-size="14.00">ForgotPasswordComponent</text>
</g>
<!-- ForgotPasswordComponent&#45;&gt;AuthModule -->
<g id="edge4" class="edge">
<title>ForgotPasswordComponent&#45;&gt;AuthModule</title>
<path fill="none" stroke="black" d="M984,-122.01C984,-138.05 984,-159 984,-159 984,-159 828.56,-159 828.56,-159"/>
<polygon fill="black" stroke="black" points="828.56,-155.5 818.56,-159 828.56,-162.5 828.56,-155.5"/>
</g>
<!-- ForgotPasswordDialogComponent -->
<g id="node5" class="node">
<title>ForgotPasswordDialogComponent</title>
<polygon fill="#ffffb3" stroke="black" points="880.42,-122 669.58,-122 669.58,-86 880.42,-86 880.42,-122"/>
<text text-anchor="middle" x="775" y="-99.8" font-family="Times,serif" font-size="14.00">ForgotPasswordDialogComponent</text>
</g>
<!-- ForgotPasswordDialogComponent&#45;&gt;AuthModule -->
<g id="edge5" class="edge">
<title>ForgotPasswordDialogComponent&#45;&gt;AuthModule</title>
<path fill="none" stroke="black" d="M775,-122.11C775,-122.11 775,-140.99 775,-140.99"/>
<polygon fill="black" stroke="black" points="771.5,-140.99 775,-150.99 778.5,-140.99 771.5,-140.99"/>
</g>
<!-- LoginFormComponent -->
<g id="node6" class="node">
<title>LoginFormComponent</title>
<polygon fill="#ffffb3" stroke="black" points="651.61,-122 506.39,-122 506.39,-86 651.61,-86 651.61,-122"/>
<text text-anchor="middle" x="579" y="-99.8" font-family="Times,serif" font-size="14.00">LoginFormComponent</text>
</g>
<!-- LoginFormComponent&#45;&gt;AuthModule -->
<g id="edge6" class="edge">
<title>LoginFormComponent&#45;&gt;AuthModule</title>
<path fill="none" stroke="black" d="M579,-122.01C579,-138.05 579,-159 579,-159 579,-159 721.01,-159 721.01,-159"/>
<polygon fill="black" stroke="black" points="721.01,-162.5 731.01,-159 721.01,-155.5 721.01,-162.5"/>
</g>
<!-- RegisterFormComponent -->
<g id="node7" class="node">
<title>RegisterFormComponent</title>
<polygon fill="#ffffb3" stroke="black" points="488.32,-122 329.68,-122 329.68,-86 488.32,-86 488.32,-122"/>
<text text-anchor="middle" x="409" y="-99.8" font-family="Times,serif" font-size="14.00">RegisterFormComponent</text>
</g>
<!-- RegisterFormComponent&#45;&gt;AuthModule -->
<g id="edge7" class="edge">
<title>RegisterFormComponent&#45;&gt;AuthModule</title>
<path fill="none" stroke="black" d="M409,-122.27C409,-140.56 409,-166 409,-166 409,-166 721.22,-166 721.22,-166"/>
<polygon fill="black" stroke="black" points="721.22,-169.5 731.22,-166 721.22,-162.5 721.22,-169.5"/>
</g>
<!-- ResetPasswordComponent -->
<g id="node8" class="node">
<title>ResetPasswordComponent</title>
<polygon fill="#ffffb3" stroke="black" points="312.09,-122 145.91,-122 145.91,-86 312.09,-86 312.09,-122"/>
<text text-anchor="middle" x="229" y="-99.8" font-family="Times,serif" font-size="14.00">ResetPasswordComponent</text>
</g>
<!-- ResetPasswordComponent&#45;&gt;AuthModule -->
<g id="edge8" class="edge">
<title>ResetPasswordComponent&#45;&gt;AuthModule</title>
<path fill="none" stroke="black" d="M229,-122.13C229,-142.57 229,-173 229,-173 229,-173 721.24,-173 721.24,-173"/>
<polygon fill="black" stroke="black" points="721.24,-176.5 731.24,-173 721.24,-169.5 721.24,-176.5"/>
</g>
<!-- SharedModule -->
<g id="node10" class="node">
<title>SharedModule</title>
<polygon fill="#8dd3c7" stroke="black" points="122.42,-122 119.42,-126 98.42,-126 95.42,-122 23.58,-122 23.58,-86 122.42,-86 122.42,-122"/>
<text text-anchor="middle" x="73" y="-99.8" font-family="Times,serif" font-size="14.00">SharedModule</text>
</g>
<!-- SharedModule&#45;&gt;AuthModule -->
<g id="edge9" class="edge">
<title>SharedModule&#45;&gt;AuthModule</title>
<path fill="none" stroke="black" d="M73,-122.01C73,-144.49 73,-180 73,-180 73,-180 721.35,-180 721.35,-180"/>
<polygon fill="black" stroke="black" points="721.35,-183.5 731.35,-180 721.35,-176.5 721.35,-183.5"/>
</g>
</g>
</svg>
