<?xml version="1.0" encoding="UTF-8" standalone="no"?>
<!DOCTYPE svg PUBLIC "-//W3C//DTD SVG 1.1//EN"
 "http://www.w3.org/Graphics/SVG/1.1/DTD/svg11.dtd">
<!-- Generated by graphviz version 2.47.0 (20210316.0004)
 -->
<!-- Title: dependencies Pages: 1 -->
<svg width="1396pt" height="284pt"
 viewBox="0.00 0.00 1396.00 284.00" xmlns="http://www.w3.org/2000/svg" xmlns:xlink="http://www.w3.org/1999/xlink">
<g id="graph0" class="graph" transform="scale(1 1) rotate(0) translate(4 280)">
<title>dependencies</title>
<polygon fill="white" stroke="transparent" points="-4,4 -4,-280 1392,-280 1392,4 -4,4"/>
<text text-anchor="start" x="673.01" y="-42.4" font-family="sans-serif" font-weight="bold" font-size="14.00">Legend</text>
<polygon fill="#ffffb3" stroke="transparent" points="460,-10 460,-30 480,-30 480,-10 460,-10"/>
<text text-anchor="start" x="483.63" y="-15.4" font-family="sans-serif" font-size="14.00"> &#160;Declarations</text>
<polygon fill="#8dd3c7" stroke="transparent" points="573,-10 573,-30 593,-30 593,-10 573,-10"/>
<text text-anchor="start" x="596.73" y="-15.4" font-family="sans-serif" font-size="14.00"> &#160;Module</text>
<polygon fill="#80b1d3" stroke="transparent" points="659,-10 659,-30 679,-30 679,-10 659,-10"/>
<text text-anchor="start" x="682.78" y="-15.4" font-family="sans-serif" font-size="14.00"> &#160;Bootstrap</text>
<polygon fill="#fdb462" stroke="transparent" points="756,-10 756,-30 776,-30 776,-10 756,-10"/>
<text text-anchor="start" x="779.67" y="-15.4" font-family="sans-serif" font-size="14.00"> &#160;Providers</text>
<polygon fill="#fb8072" stroke="transparent" points="852,-10 852,-30 872,-30 872,-10 852,-10"/>
<text text-anchor="start" x="875.73" y="-15.4" font-family="sans-serif" font-size="14.00"> &#160;Exports</text>
<g id="clust1" class="cluster">
<title>cluster_CoreModule</title>
<polygon fill="none" stroke="black" stroke-dasharray="1,5" points="8,-70 8,-268 1380,-268 1380,-70 8,-70"/>
</g>
<g id="clust8" class="cluster">
<title>cluster_CoreModule_imports</title>
<polygon fill="none" stroke="black" points="1258,-78 1258,-130 1372,-130 1372,-78 1258,-78"/>
</g>
<g id="clust2" class="cluster">
<title>cluster_CoreModule_declarations</title>
<polygon fill="none" stroke="black" points="408,-78 408,-130 1250,-130 1250,-78 408,-78"/>
</g>
<g id="clust9" class="cluster">
<title>cluster_CoreModule_exports</title>
<polygon fill="none" stroke="black" points="699,-208 699,-260 839,-260 839,-208 699,-208"/>
</g>
<g id="clust11" class="cluster">
<title>cluster_CoreModule_providers</title>
<polygon fill="none" stroke="black" points="16,-78 16,-130 400,-130 400,-78 16,-78"/>
</g>
<!-- LayoutComponent -->
<g id="node1" class="node">
<title>LayoutComponent</title>
<polygon fill="#ffffb3" stroke="black" points="1242.49,-122 1121.51,-122 1121.51,-86 1242.49,-86 1242.49,-122"/>
<text text-anchor="middle" x="1182" y="-99.8" font-family="Times,serif" font-size="14.00">LayoutComponent</text>
</g>
<!-- CoreModule -->
<g id="node6" class="node">
<title>CoreModule</title>
<polygon fill="#8dd3c7" stroke="black" points="812.26,-187 809.26,-191 788.26,-191 785.26,-187 725.74,-187 725.74,-151 812.26,-151 812.26,-187"/>
<text text-anchor="middle" x="769" y="-164.8" font-family="Times,serif" font-size="14.00">CoreModule</text>
</g>
<!-- LayoutComponent&#45;&gt;CoreModule -->
<g id="edge1" class="edge">
<title>LayoutComponent&#45;&gt;CoreModule</title>
<path fill="none" stroke="black" d="M1182,-122.11C1182,-141.34 1182,-169 1182,-169 1182,-169 822.42,-169 822.42,-169"/>
<polygon fill="black" stroke="black" points="822.42,-165.5 812.42,-169 822.42,-172.5 822.42,-165.5"/>
</g>
<!-- LayoutFooterComponent -->
<g id="node2" class="node">
<title>LayoutFooterComponent</title>
<polygon fill="#ffffb3" stroke="black" points="1103.54,-122 946.46,-122 946.46,-86 1103.54,-86 1103.54,-122"/>
<text text-anchor="middle" x="1025" y="-99.8" font-family="Times,serif" font-size="14.00">LayoutFooterComponent</text>
</g>
<!-- LayoutFooterComponent&#45;&gt;CoreModule -->
<g id="edge2" class="edge">
<title>LayoutFooterComponent&#45;&gt;CoreModule</title>
<path fill="none" stroke="black" d="M1025,-122.03C1025,-138.4 1025,-160 1025,-160 1025,-160 822.43,-160 822.43,-160"/>
<polygon fill="black" stroke="black" points="822.43,-156.5 812.43,-160 822.43,-163.5 822.43,-156.5"/>
</g>
<!-- LayoutNavComponent -->
<g id="node3" class="node">
<title>LayoutNavComponent</title>
<polygon fill="#ffffb3" stroke="black" points="928.31,-122 783.69,-122 783.69,-86 928.31,-86 928.31,-122"/>
<text text-anchor="middle" x="856" y="-99.8" font-family="Times,serif" font-size="14.00">LayoutNavComponent</text>
</g>
<!-- LayoutNavComponent&#45;&gt;CoreModule -->
<g id="edge3" class="edge">
<title>LayoutNavComponent&#45;&gt;CoreModule</title>
<path fill="none" stroke="black" d="M798.11,-122.11C798.11,-122.11 798.11,-140.99 798.11,-140.99"/>
<polygon fill="black" stroke="black" points="794.61,-140.99 798.11,-150.99 801.61,-140.99 794.61,-140.99"/>
</g>
<!-- LayoutSettingsComponent -->
<g id="node4" class="node">
<title>LayoutSettingsComponent</title>
<polygon fill="#ffffb3" stroke="black" points="766.1,-122 599.9,-122 599.9,-86 766.1,-86 766.1,-122"/>
<text text-anchor="middle" x="683" y="-99.8" font-family="Times,serif" font-size="14.00">LayoutSettingsComponent</text>
</g>
<!-- LayoutSettingsComponent&#45;&gt;CoreModule -->
<g id="edge4" class="edge">
<title>LayoutSettingsComponent&#45;&gt;CoreModule</title>
<path fill="none" stroke="black" d="M745.84,-122.11C745.84,-122.11 745.84,-140.99 745.84,-140.99"/>
<polygon fill="black" stroke="black" points="742.34,-140.99 745.84,-150.99 749.34,-140.99 742.34,-140.99"/>
</g>
<!-- LayoutSidenavComponent -->
<g id="node5" class="node">
<title>LayoutSidenavComponent</title>
<polygon fill="#ffffb3" stroke="black" points="582.09,-122 415.91,-122 415.91,-86 582.09,-86 582.09,-122"/>
<text text-anchor="middle" x="499" y="-99.8" font-family="Times,serif" font-size="14.00">LayoutSidenavComponent</text>
</g>
<!-- LayoutSidenavComponent&#45;&gt;CoreModule -->
<g id="edge5" class="edge">
<title>LayoutSidenavComponent&#45;&gt;CoreModule</title>
<path fill="none" stroke="black" d="M499,-122.03C499,-138.4 499,-160 499,-160 499,-160 715.62,-160 715.62,-160"/>
<polygon fill="black" stroke="black" points="715.62,-163.5 725.62,-160 715.62,-156.5 715.62,-163.5"/>
</g>
<!-- LayoutComponent  -->
<g id="node8" class="node">
<title>LayoutComponent </title>
<polygon fill="#fb8072" stroke="black" points="831.49,-252 706.51,-252 706.51,-216 831.49,-216 831.49,-252"/>
<text text-anchor="middle" x="769" y="-229.8" font-family="Times,serif" font-size="14.00">LayoutComponent </text>
</g>
<!-- CoreModule&#45;&gt;LayoutComponent  -->
<g id="edge7" class="edge">
<title>CoreModule&#45;&gt;LayoutComponent </title>
<path fill="none" stroke="black" stroke-dasharray="5,2" d="M769,-187.11C769,-187.11 769,-205.99 769,-205.99"/>
<polygon fill="black" stroke="black" points="765.5,-205.99 769,-215.99 772.5,-205.99 765.5,-205.99"/>
</g>
<!-- SharedModule -->
<g id="node7" class="node">
<title>SharedModule</title>
<polygon fill="#8dd3c7" stroke="black" points="1364.42,-122 1361.42,-126 1340.42,-126 1337.42,-122 1265.58,-122 1265.58,-86 1364.42,-86 1364.42,-122"/>
<text text-anchor="middle" x="1315" y="-99.8" font-family="Times,serif" font-size="14.00">SharedModule</text>
</g>
<!-- SharedModule&#45;&gt;CoreModule -->
<g id="edge6" class="edge">
<title>SharedModule&#45;&gt;CoreModule</title>
<path fill="none" stroke="black" d="M1315,-122.29C1315,-144.21 1315,-178 1315,-178 1315,-178 822.3,-178 822.3,-178"/>
<polygon fill="black" stroke="black" points="822.3,-174.5 812.3,-178 822.3,-181.5 822.3,-174.5"/>
</g>
<!-- HttpErrorInterceptor -->
<g id="node9" class="node">
<title>HttpErrorInterceptor</title>
<ellipse fill="#fdb462" stroke="black" cx="301" cy="-104" rx="90.87" ry="18"/>
<text text-anchor="middle" x="301" y="-99.8" font-family="Times,serif" font-size="14.00">HttpErrorInterceptor</text>
</g>
<!-- HttpErrorInterceptor&#45;&gt;CoreModule -->
<g id="edge8" class="edge">
<title>HttpErrorInterceptor&#45;&gt;CoreModule</title>
<path fill="none" stroke="black" d="M301,-122.11C301,-141.34 301,-169 301,-169 301,-169 715.39,-169 715.39,-169"/>
<polygon fill="black" stroke="black" points="715.39,-172.5 725.39,-169 715.39,-165.5 715.39,-172.5"/>
</g>
<!-- HttpJwtInterceptor -->
<g id="node10" class="node">
<title>HttpJwtInterceptor</title>
<ellipse fill="#fdb462" stroke="black" cx="108" cy="-104" rx="83.94" ry="18"/>
<text text-anchor="middle" x="108" y="-99.8" font-family="Times,serif" font-size="14.00">HttpJwtInterceptor</text>
</g>
<!-- HttpJwtInterceptor&#45;&gt;CoreModule -->
<g id="edge9" class="edge">
<title>HttpJwtInterceptor&#45;&gt;CoreModule</title>
<path fill="none" stroke="black" d="M108,-122.29C108,-144.21 108,-178 108,-178 108,-178 715.63,-178 715.63,-178"/>
<polygon fill="black" stroke="black" points="715.63,-181.5 725.63,-178 715.63,-174.5 715.63,-181.5"/>
</g>
</g>
</svg>
